<?xml version="1.0" encoding="UTF-8"?><svg id="_レイヤー_1" xmlns="http://www.w3.org/2000/svg" viewBox="0 0 414.49 58.66"><defs><style>.cls-1{fill:#000;}.cls-1,.cls-2{stroke-width:0px;}.cls-2{fill:none;}</style></defs><path class="cls-2" d="M8.6,29.48c0-11.51,9.36-20.87,20.88-20.87s20.88,9.36,20.88,20.87c0,10.09-7.19,18.52-16.72,20.46v2.27c10.76-1.96,18.95-11.4,18.95-22.73,0-12.74-10.37-23.11-23.11-23.11S6.37,16.74,6.37,29.48c0,11.32,8.19,20.76,18.95,22.73v-2.27c-9.53-1.93-16.72-10.37-16.72-20.46Z"/><path class="cls-2" d="M4.37,29.48C4.37,15.63,15.63,4.37,29.48,4.37s25.11,11.26,25.11,25.11c0,12.43-9.08,22.77-20.95,24.76v2.41c13.19-2.01,23.32-13.43,23.32-27.16,0-15.15-12.33-27.48-27.48-27.48S2,14.33,2,29.48c0,13.74,10.13,25.15,23.32,27.16v-2.41c-11.87-1.99-20.95-12.33-20.95-24.76Z"/><path class="cls-1" d="M58.96,29.48C58.96,13.22,45.73,0,29.48,0S0,13.22,0,29.48c0,14.84,11.03,27.15,25.32,29.18v-2.02c-13.19-2.01-23.32-13.43-23.32-27.16C2,14.33,14.33,2,29.48,2s27.48,12.33,27.48,27.48c0,13.74-10.13,25.15-23.32,27.16v2.02c14.29-2.03,25.32-14.34,25.32-29.18Z"/><path class="cls-1" d="M54.59,29.48c0-13.84-11.26-25.11-25.11-25.11S4.37,15.63,4.37,29.48c0,12.43,9.08,22.77,20.95,24.76v-2.03c-10.76-1.96-18.95-11.4-18.95-22.73,0-12.74,10.37-23.11,23.11-23.11s23.11,10.37,23.11,23.11c0,11.32-8.19,20.76-18.95,22.73v2.03c11.87-1.99,20.95-12.33,20.95-24.76Z"/><path class="cls-1" d="M50.35,29.48c0-11.9-10-21.5-22.04-20.84-10.93.6-19.68,9.85-19.71,20.79-.03,10.11,7.17,18.57,16.72,20.51v-2.06c-9.06-2.05-15.68-10.62-14.6-20.5.94-8.66,7.93-15.68,16.59-16.65,11.37-1.27,21.04,7.63,21.04,18.75,0,8.98-6.31,16.5-14.72,18.4v2.06c9.53-1.93,16.72-10.37,16.72-20.46Z"/><path class="cls-1" d="M43.52,40.89h-4.09l-3.81-9.18h-12.31l-3.72,9.18h-3.95l11.7-28.31h4.46l11.71,28.31ZM34.83,29.26l-3.48-8.4c-.74-1.93-1.35-3.72-1.81-5.39h-.14c-.46,1.71-1.11,3.49-1.77,5.28l-3.53,8.51h10.73Z"/><path class="cls-1" d="M80.62,25.37v3.78c3.63,1.17,4.8,2.88,4.8,4.17,0,1.02-.72,1.74-1.53,1.74-.42,0-.87-.18-1.26-.63-.12-1.53-.99-3.51-2.01-4.77v12.81c-.03.21-1.02.93-2.55.93h-.57v-11.1c-1.35,2.22-3.03,4.2-5.04,5.94l-.39-.42c2.4-3.39,4.05-8.07,4.92-12.45h-4.59l-.15-.6h5.25v-4.86c-1.77.39-3.57.72-5.28.99-.06-.24-.09-.33-.12-.39,3.39-1.38,7.86-3.75,10.08-5.28l3.66,3.03c-.21.18-.48.27-.84.27-.3,0-.66-.06-1.08-.18-.93.27-2.07.57-3.3.87v5.55h1.02l1.53-2.16,2.82,2.22c-.24.39-.63.54-1.41.54h-3.96ZM89.95,15.38l4.35.33c-.03.45-.27.69-1.26.78.36,12.63,1.74,19.35,7.65,23.1l-.06.36c-1.5.36-2.52,1.68-2.88,3.57-3.21-3.06-4.44-8.76-4.92-16.95h-.03c-.54,7.35-2.55,12.96-10.35,16.89l-.36-.45c7.35-5.43,7.86-12.66,7.86-22.47v-5.16ZM87.16,22.1c.63,1.56.87,2.94.87,4.08,0,1.71-.66,4.14-2.82,4.14-.93,0-1.5-.57-1.5-1.32,0-.63.42-1.23,1.02-1.65,1.05-.84,2.16-3.06,1.98-5.25h.45ZM94.78,30.53c.54-2.16,1.29-5.73,1.8-8.73l4.14,1.17c-.12.36-.39.57-1.17.6-1.23,2.52-2.82,5.28-4.32,7.17l-.45-.21Z"/><path class="cls-1" d="M131.44,17.17l3.45,2.55c-.21.24-.66.48-1.26.63v20.97s-.87,1.02-3.24,1.02v-2.43h-17.49v1.41c0,.09-.36,1.32-3.15,1.32v-25.14l3.42,1.44h16.92l1.35-1.77ZM119.95,19.54h-7.05v9.51h7.05v-9.51ZM112.9,29.65v9.66h7.05v-9.66h-7.05ZM130.39,19.54h-7.26v9.51h7.26v-9.51ZM123.13,39.31h7.26v-9.66h-7.26v9.66Z"/><path class="cls-1" d="M155.77,27.79l.03.45-1.5.42v10.86c0,1.95-.42,3.36-3.45,3.63,0-2.07-.48-2.61-2.4-2.82v-.39h2.73c.27,0,.39-.12.39-.48v-10.11c-1.32.33-2.82.69-4.5,1.08-.06,4.41-.48,9.27-4.17,12.72l-.39-.27c1.68-3.33,1.86-7.59,1.89-11.85l-.24.06c-.18.39-.54.63-.87.66l-.9-3.42c.51,0,1.2,0,2.01-.03v-10.17l3.06,1.17.42-4.35,4.47.66c-.06.48-.36.72-1.17.75-.66.87-1.71,2.07-2.49,2.97h2.58l1.17-1.53,3.06,2.25c-.21.24-.63.48-1.2.57v7.26l1.47-.09ZM147.07,19.93v8.28c1.35-.06,2.88-.12,4.5-.21v-8.07h-4.5ZM147.91,21.73c2.43.9,3.24,2.16,3.24,3.18,0,.96-.72,1.68-1.47,1.68-.39,0-.78-.18-1.11-.63,0-1.02-.21-2.82-.99-3.99l.33-.24ZM150.91,30.58c-.03.27-.21.42-.78.48v6.24c0,.06-.33.63-1.92.63v-7.56l2.7.21ZM154.99,30.13c1.74-3.18,3-8.94,3.39-14.52l4.35.81c-.09.42-.33.63-1.11.69-1.2,5.67-3.18,10.38-6.21,13.29l-.42-.27ZM165.43,30.25l1.29-1.65,3.18,2.34c-.21.24-.54.42-1.17.51v10.71c0,.12-1.02.75-2.52.75h-.51v-2.28h-5.97v1.62c0,.21-.9.9-2.4.9h-.48v-14.16l3.21,1.26h5.37ZM159.73,40.06h5.97v-9.21h-5.97v9.21ZM171.16,26.74c-1.17.24-2.1,1.2-2.61,2.76-2.28-3.06-3.42-7.65-4.11-13.65l.42-.12c1.14,4.62,3.63,8.67,6.42,10.68l-.12.33Z"/><path class="cls-1" d="M191.12,28.24l.03.45-1.5.42v10.86c0,1.95-.42,3.36-3.45,3.63,0-2.07-.48-2.61-2.4-2.82v-.39h2.73c.27,0,.39-.12.39-.48v-10.11c-1.32.33-2.82.69-4.5,1.08-.06,4.41-.48,9.27-4.17,12.72l-.39-.27c1.68-3.33,1.86-7.59,1.89-11.85l-.24.06c-.18.39-.54.63-.87.66l-.9-3.42c.51,0,1.2,0,2.01-.03v-10.17l3.06,1.17.42-4.35,4.47.66c-.06.48-.36.72-1.17.75-.66.87-1.71,2.07-2.49,2.97h2.58l1.17-1.53,3.06,2.25c-.21.24-.63.48-1.2.57v7.26l1.47-.09ZM182.42,20.38v8.28c1.35-.06,2.88-.12,4.5-.21v-8.07h-4.5ZM183.26,22.18c2.43.9,3.24,2.16,3.24,3.18,0,.96-.72,1.68-1.47,1.68-.39,0-.78-.18-1.11-.63,0-1.02-.21-2.82-.99-3.99l.33-.24ZM186.26,31.03c-.03.27-.21.42-.78.48v6.24c0,.06-.33.63-1.92.63v-7.56l2.7.21ZM202.58,19.45l3.27,2.49c-.24.27-.6.48-1.29.57v19.86c0,.18-1.05.9-2.55.9h-.51v-2.76h-6.33v2.07c0,.24-.9.96-2.43.96h-.51v-23.55l3.3,1.26h.42c.21-1.59.48-4.05.66-5.82l4.83.72c-.09.48-.39.72-1.23.78-.72,1.23-1.92,3.06-2.76,4.32h3.75l1.38-1.8ZM201.5,21.85h-6.33v8.34h6.33v-8.34ZM195.17,39.94h6.33v-9.15h-6.33v9.15Z"/><path class="cls-1" d="M237.21,38.64l3.75,2.7c-.27.36-.63.51-1.5.51h-26.55l-.18-.6h11.43V15.48l4.68.45c-.06.42-.39.66-1.29.78v10.05h5.37l1.98-2.58,3.69,2.67c-.24.39-.66.51-1.5.51h-9.54v13.89h7.62l2.04-2.61Z"/><path class="cls-1" d="M275.77,33c-.24.36-.63.51-1.47.51h-10.38c2.67,3.03,7.71,5.28,12.24,6.09l-.03.36c-1.29.3-2.25,1.35-2.64,3-4.53-1.77-8.01-4.89-10.14-9.24v9.15c0,.06-.6.9-3.39.9v-7.95c-2.94,3.15-7.23,5.61-12.3,7.23l-.24-.45c4.23-2.25,7.83-5.7,9.9-9.09h-9.42l-.18-.57h12.24v-4.05l3.39.3v-12.03l3.24,1.35h4.26l1.26-1.62,3.39,2.37c-.18.24-.6.51-1.17.6v8.37c0,.06-.9.96-3.18.96v-1.77h-4.68v1.59c0,.06-.45,1.17-3.12,1.17v2.76h7.14l1.83-2.34,3.45,2.4ZM254.89,20.13c-.54,3.6-2.04,7.53-6.84,10.47l-.39-.42c2.97-3.12,3.9-6.66,4.2-10.05h-3.81l-.18-.6h4.05c.09-1.38.09-2.73.12-3.99l4.29.33c-.06.36-.27.54-1.08.63-.06.96-.12,1.98-.27,3.03h2.61l1.26-1.53,3.12,2.31c-.21.24-.57.45-1.11.54-.27,5.25-.78,7.65-1.95,8.52-.87.6-1.68.81-3.18.84,0-1.92-.51-2.25-2.25-2.7v-.42l2.52.03c.42,0,.6,0,.81-.18.51-.45.84-2.55,1.05-6.81h-2.97ZM271.15,19.11h-4.68v7.71h4.68v-7.71Z"/><path class="cls-1" d="M302.79,28.98c1.29,3.75,4.35,7.08,7.38,8.61l.03.27c-1.38.87-2.55,2.07-2.79,3.45-2.28-2.43-3.93-6.57-4.89-10.74v11.4c0,.06-.48,1.11-3.09,1.11v-9.72c-1.95,3.12-4.71,5.76-8.13,7.77l-.33-.42c3.27-3.03,5.67-7.41,6.96-11.73h-5.13c.54.6.75,1.2.75,1.71,0,.93-.69,1.62-1.47,1.62-.39,0-.81-.18-1.17-.6-.15-1.32-.9-3.06-1.74-4.26v14.73c0,.06-.42.96-3.12.96v-12.66c-1.17,2.04-2.61,3.9-4.32,5.55l-.39-.39c2.25-3.48,3.66-8.22,4.41-12.72h-4.05l-.15-.6h4.5v-7.35l4.32.42c-.03.42-.27.66-1.2.75v6.18h.57l1.44-2.22,2.61,2.28c-.24.39-.63.54-1.41.54h-3.21v3.99c1.59.54,2.67,1.17,3.36,1.8l-.09-.33h6.99v-6.57h-3c-.87,2.13-1.92,3.99-3.18,5.37l-.48-.21c.9-2.46,1.56-6.66,1.8-10.44l4.2.84c-.09.39-.3.6-1.08.66-.3,1.11-.63,2.16-1.02,3.18h2.76v-6.24l4.32.42c-.06.42-.3.66-1.23.75v5.07h1.74l1.65-2.28,3,2.34c-.24.39-.63.54-1.44.54h-4.95v6.57h2.67l1.68-2.31,3.09,2.4c-.24.36-.63.51-1.44.51h-5.73Z"/><path class="cls-1" d="M345.47,35.08l-.66,4.98c.69,1.11.99,1.89.99,2.43,0,.75-.87,1.2-1.65,1.2-1.23,0-2.64-.84-3.6-1.68-5.01-4.41-6.84-11.16-7.41-19.08h-15.15l-.18-.6h15.3c-.15-2.16-.21-4.41-.21-6.72l4.5.45c-.03.39-.27.57-1.14.72-.03,1.86-.03,3.75.06,5.55h3.96l1.8-2.22c-.24-.06-.45-.18-.69-.33-.57-1.17-1.8-2.52-2.97-3.24l.12-.27c4.05-.21,5.37,1.17,5.37,2.31,0,.81-.63,1.5-1.44,1.56l3.24,2.25c-.24.39-.6.54-1.44.54h-7.92c.39,6.66,1.92,12.63,6.09,15.9.21.18.39.27.54.27s.3-.12.45-.42c.45-.75,1.29-2.37,1.8-3.66l.24.06ZM327.32,29.41v8.88c2.25-.18,4.68-.39,7.2-.63l.06.45c-3.03.99-7.38,2.16-14.01,3.72-.18.39-.48.6-.78.66l-1.98-3.51c1.41-.06,3.6-.21,6.3-.42v-9.15h-5.37l-.15-.6h9.6l1.74-2.25,3.24,2.34c-.24.39-.63.51-1.44.51h-4.41Z"/><path class="cls-1" d="M352.37,28.09c5.04-3.24,9.9-8.79,11.76-13.2l4.74,1.38c-.09.42-.45.6-1.41.69,2.97,3.12,7.74,5.91,13.26,7.35l-.06.51c-1.35.45-2.04,1.77-2.34,3.06-4.89-2.34-8.94-6.09-11.34-10.56-2.61,3.84-8.22,8.73-14.43,11.13l-.18-.36ZM374.15,31.15l1.92-2.43,3.57,2.52c-.24.36-.6.51-1.47.51h-14.94l2.61.78c-.12.36-.42.51-1.17.45-1.11,1.86-2.94,4.26-4.8,6.3,3.51-.09,7.92-.21,12.63-.36-.99-1.53-2.28-2.97-3.57-3.96l.18-.24c6.36,1.59,8.37,4.44,8.37,6.39,0,1.23-.78,2.1-1.77,2.1-.45,0-.93-.18-1.41-.57-.27-.93-.72-1.95-1.29-2.91-3.63.72-8.67,1.5-15.84,2.58-.21.36-.51.57-.84.63l-2.04-3.6c1.11,0,2.64,0,4.47-.03.96-2.34,1.92-5.28,2.52-7.56h-7.59l-.18-.6h20.64ZM370.37,23.65l3.36,2.34c-.24.42-.63.54-1.44.54h-13.68l-.15-.6h10.14l1.77-2.28Z"/><path class="cls-1" d="M396.64,20.14l2.97,2.91c-.27.24-.63.33-1.38.39-1.05,1.95-2.55,4.02-4.35,5.94,4.14.69,5.49,2.37,5.49,3.66,0,.99-.75,1.77-1.62,1.77-.42,0-.84-.15-1.26-.54-.36-1.5-1.47-3.24-2.67-4.35v12.6c-.03.21-1.05,1.02-2.61,1.02h-.57v-11.16c-1.44,1.14-3,2.13-4.59,2.91l-.3-.27c3.87-2.76,7.62-8.19,9.21-12.54h-8.61l-.18-.6h4.44v-6.42l4.5.42c-.06.45-.36.66-1.29.78v5.22h.96l1.86-1.74ZM411.22,38.95l3.27,2.55c-.24.39-.66.51-1.47.51h-16.41l-.15-.6h7.38v-14.4h-5.37l-.15-.6h5.52v-10.95l4.59.42c-.06.42-.36.69-1.26.81v9.72h1.74l1.74-2.37,3.18,2.43c-.24.39-.63.54-1.47.54h-5.19v14.4h2.25l1.8-2.46Z"/></svg>